<svg xmlns="http://www.w3.org/2000/svg" xmlns:xlink="http://www.w3.org/1999/xlink" width="75.7519989013672" zoomAndPan="magnify" viewBox="0 0 375 374.999991" height="100" preserveAspectRatio="xMidYMid meet" version="1.0"><defs><clipPath id="b547c4c426"><path d="M 86 143 L 190 143 L 190 307 L 86 307 Z M 86 143 " clip-rule="nonzero"/></clipPath><clipPath id="a673924343"><path d="M 151.257812 323.554688 L 52.253906 224.550781 L 161.574219 115.230469 L 260.578125 214.238281 Z M 151.257812 323.554688 " clip-rule="nonzero"/></clipPath><clipPath id="9589504f71"><path d="M 151.257812 323.554688 L 52.253906 224.550781 L 161.574219 115.230469 L 260.578125 214.238281 Z M 151.257812 323.554688 " clip-rule="nonzero"/></clipPath><clipPath id="9a28305f50"><path d="M 130.429688 187.300781 C 128.589844 189.136719 126.898438 191.101562 125.351562 193.191406 C 123.804688 195.277344 122.417969 197.46875 121.195312 199.765625 C 119.972656 202.058594 118.925781 204.429688 118.050781 206.882812 C 117.179688 209.332031 116.492188 211.832031 115.988281 214.386719 C 115.488281 216.941406 115.175781 219.515625 115.050781 222.117188 C 114.929688 224.71875 115 227.316406 115.257812 229.910156 C 115.519531 232.5 115.96875 235.0625 116.605469 237.589844 C 117.246094 240.117188 118.066406 242.585938 119.066406 244.992188 C 120.070312 247.402344 121.242188 249.722656 122.585938 251.960938 C 123.929688 254.199219 125.429688 256.324219 127.085938 258.339844 C 128.742188 260.359375 130.539062 262.242188 132.472656 263.996094 C 134.40625 265.75 136.457031 267.351562 138.625 268.800781 C 140.792969 270.253906 143.054688 271.539062 145.414062 272.65625 C 147.769531 273.773438 150.195312 274.714844 152.6875 275.476562 C 155.183594 276.234375 157.71875 276.808594 160.296875 277.199219 C 162.875 277.585938 165.464844 277.78125 168.070312 277.785156 L 168.058594 273.949219 C 166.449219 273.945312 164.84375 273.863281 163.242188 273.699219 C 161.640625 273.539062 160.050781 273.300781 158.46875 272.984375 C 156.890625 272.664062 155.332031 272.269531 153.792969 271.800781 C 152.25 271.328125 150.738281 270.785156 149.25 270.164062 C 147.761719 269.546875 146.308594 268.855469 144.886719 268.09375 C 143.464844 267.332031 142.085938 266.503906 140.746094 265.605469 C 139.40625 264.710938 138.113281 263.75 136.867188 262.726562 C 135.621094 261.703125 134.429688 260.621094 133.289062 259.480469 C 132.148438 258.339844 131.070312 257.144531 130.046875 255.898438 C 129.023438 254.652344 128.0625 253.359375 127.167969 252.019531 C 126.269531 250.679688 125.441406 249.300781 124.679688 247.878906 C 123.917969 246.460938 123.226562 245.003906 122.609375 243.515625 C 121.992188 242.03125 121.445312 240.515625 120.976562 238.972656 C 120.507812 237.433594 120.113281 235.875 119.796875 234.292969 C 119.480469 232.714844 119.242188 231.125 119.078125 229.523438 C 118.917969 227.921875 118.835938 226.316406 118.835938 224.707031 C 118.832031 223.097656 118.90625 221.492188 119.0625 219.894531 C 119.214844 218.292969 119.449219 216.703125 119.761719 215.125 C 120.070312 213.546875 120.457031 211.988281 120.921875 210.453125 C 121.386719 208.914062 121.925781 207.402344 122.539062 205.914062 C 123.152344 204.429688 123.835938 202.980469 124.589844 201.5625 C 125.347656 200.144531 126.171875 198.769531 127.0625 197.433594 C 127.953125 196.097656 128.910156 194.808594 129.925781 193.566406 C 130.945312 192.324219 132.023438 191.136719 133.15625 190 C 134.292969 188.867188 135.480469 187.789062 136.722656 186.773438 C 137.964844 185.753906 139.253906 184.800781 140.589844 183.910156 C 141.925781 183.019531 143.304688 182.195312 144.722656 181.4375 C 146.140625 180.683594 147.589844 180 149.074219 179.386719 C 150.5625 178.777344 152.074219 178.238281 153.613281 177.773438 C 155.152344 177.308594 156.710938 176.921875 158.285156 176.613281 C 159.863281 176.304688 161.453125 176.070312 163.054688 175.917969 C 164.65625 175.761719 166.261719 175.6875 167.871094 175.691406 L 189.546875 175.734375 L 189.535156 171.898438 L 167.859375 171.882812 C 164.378906 171.863281 160.933594 172.1875 157.519531 172.851562 C 154.109375 173.515625 150.796875 174.511719 147.582031 175.835938 C 144.371094 177.15625 141.320312 178.785156 138.433594 180.714844 C 135.546875 182.644531 132.878906 184.839844 130.429688 187.300781 Z M 144.046875 200.917969 C 142.878906 202.089844 141.800781 203.339844 140.8125 204.671875 C 139.828125 206.003906 138.945312 207.398438 138.167969 208.859375 C 137.386719 210.320312 136.71875 211.832031 136.164062 213.394531 C 135.609375 214.957031 135.171875 216.550781 134.851562 218.175781 C 134.53125 219.800781 134.332031 221.445312 134.253906 223.101562 C 134.175781 224.757812 134.21875 226.414062 134.386719 228.0625 C 134.550781 229.714844 134.839844 231.347656 135.246094 232.957031 C 135.652344 234.566406 136.171875 236.140625 136.8125 237.671875 C 137.449219 239.207031 138.195312 240.6875 139.050781 242.113281 C 139.90625 243.539062 140.863281 244.890625 141.917969 246.175781 C 142.972656 247.460938 144.117188 248.664062 145.347656 249.78125 C 146.582031 250.898438 147.886719 251.917969 149.269531 252.84375 C 150.648438 253.765625 152.089844 254.585938 153.59375 255.300781 C 155.09375 256.011719 156.640625 256.609375 158.226562 257.09375 C 159.816406 257.582031 161.429688 257.945312 163.074219 258.195312 C 164.714844 258.441406 166.367188 258.566406 168.023438 258.570312 L 168.015625 254.730469 C 167.035156 254.726562 166.058594 254.675781 165.085938 254.578125 C 164.109375 254.480469 163.140625 254.335938 162.179688 254.144531 C 161.21875 253.949219 160.269531 253.710938 159.332031 253.425781 C 158.394531 253.140625 157.472656 252.808594 156.566406 252.429688 C 155.660156 252.054688 154.773438 251.632812 153.910156 251.171875 C 153.042969 250.707031 152.203125 250.203125 151.390625 249.65625 C 150.574219 249.113281 149.785156 248.527344 149.027344 247.90625 C 148.269531 247.28125 147.542969 246.625 146.847656 245.929688 C 146.152344 245.234375 145.496094 244.507812 144.871094 243.75 C 144.25 242.992188 143.664062 242.203125 143.117188 241.390625 C 142.574219 240.574219 142.066406 239.734375 141.605469 238.867188 C 141.140625 238.003906 140.71875 237.117188 140.34375 236.210938 C 139.96875 235.308594 139.636719 234.386719 139.347656 233.449219 C 139.0625 232.507812 138.824219 231.558594 138.628906 230.597656 C 138.4375 229.636719 138.292969 228.667969 138.195312 227.695312 C 138.09375 226.71875 138.046875 225.742188 138.042969 224.761719 C 138.042969 223.78125 138.085938 222.804688 138.179688 221.832031 C 138.277344 220.855469 138.417969 219.890625 138.605469 218.929688 C 138.796875 217.96875 139.03125 217.019531 139.3125 216.082031 C 139.597656 215.148438 139.925781 214.226562 140.296875 213.320312 C 140.671875 212.417969 141.085938 211.535156 141.546875 210.671875 C 142.007812 209.808594 142.507812 208.96875 143.050781 208.15625 C 143.59375 207.34375 144.175781 206.558594 144.796875 205.804688 C 145.414062 205.046875 146.070312 204.324219 146.761719 203.632812 C 147.453125 202.941406 148.175781 202.289062 148.933594 201.667969 C 149.691406 201.046875 150.472656 200.46875 151.289062 199.925781 C 152.101562 199.382812 152.941406 198.882812 153.800781 198.421875 C 154.664062 197.960938 155.550781 197.546875 156.453125 197.171875 C 157.359375 196.800781 158.277344 196.472656 159.214844 196.191406 C 160.152344 195.910156 161.101562 195.671875 162.0625 195.484375 C 163.023438 195.296875 163.988281 195.15625 164.964844 195.0625 C 165.9375 194.96875 166.914062 194.921875 167.894531 194.925781 L 189.601562 194.96875 L 189.589844 191.132812 L 167.882812 191.085938 C 165.667969 191.078125 163.472656 191.285156 161.300781 191.707031 C 159.125 192.132812 157.015625 192.769531 154.972656 193.613281 C 152.925781 194.457031 150.984375 195.492188 149.144531 196.722656 C 147.308594 197.953125 145.609375 199.351562 144.046875 200.917969 Z M 137.226562 194.097656 C 135.722656 195.601562 134.339844 197.207031 133.074219 198.917969 C 131.808594 200.625 130.675781 202.421875 129.675781 204.296875 C 128.675781 206.175781 127.820312 208.117188 127.105469 210.121094 C 126.394531 212.125 125.832031 214.171875 125.421875 216.261719 C 125.007812 218.351562 124.753906 220.457031 124.652344 222.585938 C 124.554688 224.714844 124.609375 226.839844 124.824219 228.960938 C 125.039062 231.082031 125.40625 233.175781 125.925781 235.242188 C 126.449219 237.3125 127.121094 239.332031 127.9375 241.300781 C 128.757812 243.273438 129.71875 245.171875 130.816406 247 C 131.914062 248.832031 133.140625 250.570312 134.496094 252.222656 C 135.851562 253.871094 137.320312 255.414062 138.898438 256.851562 C 140.480469 258.285156 142.160156 259.597656 143.933594 260.785156 C 145.707031 261.972656 147.554688 263.023438 149.484375 263.941406 C 151.410156 264.855469 153.394531 265.628906 155.4375 266.25 C 157.476562 266.875 159.550781 267.347656 161.65625 267.664062 C 163.765625 267.984375 165.886719 268.144531 168.015625 268.152344 L 168.035156 264.339844 C 166.761719 264.304688 165.492188 264.210938 164.230469 264.050781 C 162.964844 263.894531 161.707031 263.675781 160.464844 263.398438 C 159.21875 263.121094 157.992188 262.785156 156.777344 262.386719 C 155.566406 261.988281 154.375 261.535156 153.207031 261.023438 C 152.039062 260.511719 150.898438 259.945312 149.78125 259.324219 C 148.667969 258.703125 147.585938 258.027344 146.535156 257.300781 C 145.484375 256.574219 144.472656 255.800781 143.5 254.976562 C 142.523438 254.152344 141.589844 253.28125 140.699219 252.367188 C 139.804688 251.453125 138.960938 250.5 138.160156 249.503906 C 137.363281 248.511719 136.613281 247.480469 135.910156 246.410156 C 135.210938 245.34375 134.5625 244.246094 133.96875 243.117188 C 133.375 241.988281 132.835938 240.832031 132.355469 239.648438 C 131.871094 238.46875 131.445312 237.269531 131.082031 236.046875 C 130.714844 234.824219 130.40625 233.589844 130.160156 232.335938 C 129.914062 231.085938 129.726562 229.828125 129.601562 228.558594 C 129.476562 227.289062 129.410156 226.019531 129.40625 224.746094 C 129.40625 223.46875 129.464844 222.199219 129.585938 220.929688 C 129.703125 219.664062 129.886719 218.40625 130.128906 217.15625 C 130.371094 215.90625 130.671875 214.671875 131.035156 213.449219 C 131.394531 212.230469 131.816406 211.03125 132.292969 209.851562 C 132.769531 208.671875 133.304688 207.519531 133.894531 206.390625 C 134.484375 205.265625 135.128906 204.167969 135.824219 203.105469 C 136.519531 202.039062 137.265625 201.011719 138.058594 200.019531 C 138.855469 199.027344 139.695312 198.078125 140.585938 197.167969 C 141.472656 196.257812 142.402344 195.394531 143.375 194.574219 C 144.347656 193.753906 145.355469 192.984375 146.402344 192.261719 C 147.449219 191.539062 148.527344 190.871094 149.640625 190.253906 C 150.753906 189.636719 151.890625 189.074219 153.058594 188.566406 C 154.226562 188.058594 155.414062 187.609375 156.625 187.21875 C 157.835938 186.828125 159.0625 186.496094 160.304688 186.222656 C 161.550781 185.949219 162.804688 185.738281 164.066406 185.585938 C 165.332031 185.433594 166.601562 185.34375 167.875 185.316406 L 189.566406 185.359375 L 189.554688 181.523438 L 167.863281 181.476562 C 165.015625 181.464844 162.195312 181.730469 159.40625 182.277344 C 156.613281 182.824219 153.902344 183.636719 151.273438 184.722656 C 148.644531 185.808594 146.152344 187.140625 143.789062 188.71875 C 141.425781 190.300781 139.246094 192.097656 137.242188 194.113281 Z M 116.796875 173.667969 C 115.964844 174.5 115.152344 175.355469 114.359375 176.230469 C 113.570312 177.101562 112.800781 177.996094 112.050781 178.90625 C 111.304688 179.820312 110.582031 180.75 109.878906 181.695312 C 109.179688 182.644531 108.5 183.609375 107.847656 184.589844 C 107.191406 185.570312 106.5625 186.566406 105.957031 187.578125 C 105.351562 188.589844 104.773438 189.617188 104.21875 190.660156 C 103.664062 191.699219 103.136719 192.753906 102.632812 193.820312 C 102.132812 194.886719 101.65625 195.964844 101.207031 197.058594 C 100.757812 198.148438 100.335938 199.25 99.9375 200.359375 C 99.542969 201.472656 99.175781 202.59375 98.835938 203.722656 C 98.496094 204.851562 98.183594 205.988281 97.898438 207.136719 C 97.613281 208.28125 97.359375 209.433594 97.132812 210.589844 C 96.902344 211.75 96.703125 212.910156 96.535156 214.078125 C 96.363281 215.246094 96.222656 216.417969 96.109375 217.59375 C 95.996094 218.769531 95.910156 219.949219 95.855469 221.128906 C 95.800781 222.308594 95.773438 223.488281 95.777344 224.667969 C 95.78125 225.851562 95.8125 227.03125 95.875 228.210938 C 95.933594 229.390625 96.023438 230.570312 96.140625 231.746094 C 96.261719 232.921875 96.40625 234.09375 96.585938 235.261719 C 96.761719 236.429688 96.964844 237.59375 97.199219 238.753906 C 97.429688 239.914062 97.691406 241.066406 97.984375 242.210938 C 98.273438 243.359375 98.589844 244.496094 98.933594 245.628906 C 99.28125 246.757812 99.652344 247.882812 100.054688 248.992188 C 100.457031 250.105469 100.882812 251.210938 101.335938 252.300781 C 101.792969 253.394531 102.273438 254.472656 102.78125 255.542969 C 103.289062 256.613281 103.820312 257.667969 104.378906 258.710938 C 104.941406 259.753906 105.523438 260.78125 106.132812 261.796875 C 106.742188 262.8125 107.378906 263.808594 108.035156 264.792969 C 108.695312 265.777344 109.378906 266.742188 110.082031 267.695312 C 110.789062 268.644531 111.519531 269.574219 112.269531 270.492188 C 113.019531 271.40625 113.792969 272.300781 114.589844 273.175781 C 115.386719 274.054688 116.199219 274.910156 117.039062 275.746094 C 120.386719 279.117188 124.035156 282.125 127.976562 284.773438 C 131.917969 287.421875 136.082031 289.660156 140.464844 291.484375 C 144.847656 293.308594 149.367188 294.683594 154.019531 295.613281 C 158.671875 296.542969 163.367188 297.007812 168.109375 297.003906 L 168.082031 293.183594 C 166.964844 293.179688 165.847656 293.148438 164.730469 293.09375 C 163.613281 293.035156 162.496094 292.949219 161.382812 292.839844 C 160.269531 292.726562 159.160156 292.585938 158.054688 292.421875 C 156.945312 292.253906 155.84375 292.0625 154.746094 291.839844 C 153.648438 291.621094 152.558594 291.375 151.472656 291.097656 C 150.386719 290.824219 149.308594 290.523438 148.238281 290.199219 C 147.167969 289.871094 146.105469 289.519531 145.050781 289.140625 C 143.996094 288.757812 142.953125 288.355469 141.917969 287.925781 C 140.886719 287.496094 139.863281 287.039062 138.851562 286.558594 C 137.839844 286.078125 136.839844 285.574219 135.851562 285.042969 C 134.863281 284.515625 133.890625 283.960938 132.929688 283.386719 C 131.96875 282.808594 131.023438 282.207031 130.089844 281.585938 C 129.160156 280.960938 128.246094 280.316406 127.34375 279.648438 C 126.445312 278.980469 125.5625 278.289062 124.695312 277.578125 C 123.832031 276.867188 122.984375 276.136719 122.152344 275.382812 C 121.320312 274.628906 120.511719 273.855469 119.71875 273.066406 C 118.925781 272.273438 118.152344 271.460938 117.398438 270.628906 C 116.648438 269.800781 115.914062 268.953125 115.203125 268.085938 C 114.492188 267.21875 113.804688 266.335938 113.136719 265.4375 C 112.464844 264.539062 111.820312 263.621094 111.199219 262.691406 C 110.574219 261.761719 109.972656 260.8125 109.398438 259.851562 C 108.820312 258.894531 108.265625 257.917969 107.738281 256.929688 C 107.207031 255.945312 106.703125 254.945312 106.222656 253.933594 C 105.742188 252.921875 105.289062 251.898438 104.859375 250.863281 C 104.425781 249.828125 104.023438 248.785156 103.644531 247.730469 C 103.265625 246.675781 102.910156 245.613281 102.585938 244.542969 C 102.257812 243.472656 101.957031 242.394531 101.683594 241.308594 C 101.410156 240.222656 101.164062 239.132812 100.941406 238.035156 C 100.722656 236.9375 100.527344 235.835938 100.363281 234.730469 C 100.195312 233.621094 100.054688 232.511719 99.945312 231.398438 C 99.832031 230.285156 99.746094 229.171875 99.691406 228.054688 C 99.632812 226.9375 99.601562 225.820312 99.601562 224.699219 C 99.597656 223.582031 99.625 222.464844 99.675781 221.347656 C 99.730469 220.230469 99.808594 219.113281 99.917969 218.003906 C 100.023438 216.890625 100.15625 215.78125 100.320312 214.675781 C 100.480469 213.566406 100.671875 212.464844 100.886719 211.371094 C 101.101562 210.273438 101.34375 209.183594 101.613281 208.097656 C 101.882812 207.015625 102.179688 205.9375 102.503906 204.867188 C 102.824219 203.796875 103.171875 202.738281 103.546875 201.683594 C 103.921875 200.632812 104.324219 199.589844 104.75 198.558594 C 105.175781 197.527344 105.625 196.503906 106.101562 195.492188 C 106.578125 194.484375 107.078125 193.488281 107.605469 192.5 C 108.128906 191.515625 108.679688 190.542969 109.25 189.585938 C 109.824219 188.628906 110.421875 187.683594 111.039062 186.753906 C 111.660156 185.828125 112.300781 184.914062 112.964844 184.015625 C 113.628906 183.121094 114.316406 182.242188 115.023438 181.378906 C 115.730469 180.515625 116.460938 179.667969 117.210938 178.84375 C 117.960938 178.015625 118.730469 177.207031 119.519531 176.417969 C 120.308594 175.628906 121.113281 174.859375 121.941406 174.109375 C 122.769531 173.359375 123.613281 172.632812 124.476562 171.921875 C 125.339844 171.214844 126.222656 170.53125 127.117188 169.867188 C 128.015625 169.199219 128.925781 168.558594 129.855469 167.941406 C 130.785156 167.320312 131.726562 166.722656 132.6875 166.152344 C 133.644531 165.578125 134.617188 165.027344 135.601562 164.503906 C 136.585938 163.976562 137.585938 163.476562 138.59375 163 C 139.605469 162.527344 140.625 162.074219 141.660156 161.648438 C 142.691406 161.222656 143.734375 160.824219 144.785156 160.449219 C 145.835938 160.074219 146.898438 159.726562 147.96875 159.402344 C 149.039062 159.078125 150.113281 158.785156 151.199219 158.515625 C 152.285156 158.246094 153.375 158 154.46875 157.785156 C 155.566406 157.570312 156.667969 157.382812 157.773438 157.21875 C 158.878906 157.058594 159.988281 156.921875 161.101562 156.816406 C 162.214844 156.707031 163.332031 156.628906 164.449219 156.574219 C 165.566406 156.523438 166.683594 156.496094 167.800781 156.5 L 189.472656 156.53125 L 189.460938 152.695312 L 167.804688 152.648438 C 163.0625 152.625 158.367188 153.070312 153.71875 153.976562 C 149.066406 154.886719 144.554688 156.242188 140.179688 158.046875 C 135.800781 159.855469 131.648438 162.070312 127.714844 164.703125 C 123.78125 167.335938 120.148438 170.328125 116.8125 173.679688 Z M 150.839844 207.710938 C 150.003906 208.550781 149.234375 209.445312 148.527344 210.394531 C 147.824219 211.347656 147.191406 212.347656 146.636719 213.390625 C 146.078125 214.4375 145.601562 215.519531 145.203125 216.636719 C 144.808594 217.75 144.496094 218.890625 144.265625 220.054688 C 144.035156 221.21875 143.894531 222.390625 143.839844 223.578125 C 143.78125 224.761719 143.8125 225.945312 143.933594 227.125 C 144.050781 228.308594 144.257812 229.472656 144.546875 230.625 C 144.835938 231.777344 145.210938 232.902344 145.667969 234 C 146.125 235.097656 146.660156 236.15625 147.269531 237.175781 C 147.882812 238.191406 148.566406 239.164062 149.320312 240.082031 C 150.074219 241 150.894531 241.859375 151.773438 242.65625 C 152.65625 243.457031 153.589844 244.1875 154.578125 244.847656 C 155.566406 245.511719 156.59375 246.09375 157.667969 246.605469 C 158.742188 247.113281 159.847656 247.542969 160.984375 247.890625 C 162.121094 248.238281 163.273438 248.5 164.449219 248.675781 C 165.625 248.851562 166.804688 248.941406 167.992188 248.945312 L 167.984375 245.109375 C 167.320312 245.105469 166.65625 245.074219 165.996094 245.007812 C 165.335938 244.941406 164.679688 244.839844 164.027344 244.710938 C 163.375 244.578125 162.730469 244.417969 162.09375 244.222656 C 161.457031 244.027344 160.832031 243.804688 160.214844 243.546875 C 159.601562 243.292969 159 243.007812 158.414062 242.691406 C 157.828125 242.378906 157.257812 242.035156 156.703125 241.664062 C 156.148438 241.292969 155.617188 240.898438 155.101562 240.476562 C 154.585938 240.050781 154.09375 239.605469 153.625 239.132812 C 153.152344 238.664062 152.707031 238.171875 152.28125 237.65625 C 151.859375 237.140625 151.464844 236.605469 151.09375 236.054688 C 150.722656 235.5 150.378906 234.929688 150.066406 234.34375 C 149.75 233.757812 149.464844 233.15625 149.210938 232.542969 C 148.953125 231.925781 148.730469 231.300781 148.535156 230.664062 C 148.339844 230.027344 148.179688 229.382812 148.046875 228.730469 C 147.917969 228.078125 147.816406 227.421875 147.75 226.761719 C 147.683594 226.101562 147.652344 225.4375 147.648438 224.773438 C 147.648438 224.105469 147.679688 223.445312 147.742188 222.78125 C 147.804688 222.121094 147.902344 221.464844 148.03125 220.8125 C 148.160156 220.160156 148.320312 219.519531 148.511719 218.882812 C 148.703125 218.246094 148.925781 217.621094 149.175781 217.007812 C 149.429688 216.394531 149.714844 215.796875 150.027344 215.210938 C 150.335938 214.625 150.675781 214.054688 151.046875 213.503906 C 151.414062 212.953125 151.808594 212.417969 152.230469 211.90625 C 152.648438 211.394531 153.09375 210.902344 153.5625 210.433594 C 154.03125 209.964844 154.523438 209.519531 155.035156 209.101562 C 155.550781 208.679688 156.082031 208.285156 156.632812 207.917969 C 157.183594 207.546875 157.753906 207.207031 158.339844 206.894531 C 158.925781 206.585938 159.523438 206.300781 160.136719 206.046875 C 160.75 205.796875 161.375 205.574219 162.011719 205.382812 C 162.648438 205.191406 163.289062 205.03125 163.941406 204.902344 C 164.59375 204.773438 165.25 204.675781 165.910156 204.613281 C 166.574219 204.550781 167.238281 204.519531 167.902344 204.519531 L 189.621094 204.59375 L 189.601562 200.757812 L 167.890625 200.710938 C 166.304688 200.703125 164.738281 200.851562 163.183594 201.152344 C 161.632812 201.457031 160.125 201.910156 158.664062 202.511719 C 157.203125 203.113281 155.8125 203.855469 154.5 204.730469 C 153.1875 205.609375 151.972656 206.609375 150.855469 207.726562 Z M 123.609375 180.476562 C 122.523438 181.5625 121.480469 182.683594 120.476562 183.847656 C 119.476562 185.007812 118.519531 186.203125 117.605469 187.4375 C 116.691406 188.667969 115.824219 189.933594 115.003906 191.230469 C 114.183594 192.527344 113.414062 193.851562 112.691406 195.207031 C 111.96875 196.558594 111.300781 197.9375 110.679688 199.339844 C 110.058594 200.746094 109.492188 202.167969 108.976562 203.617188 C 108.460938 205.0625 108 206.523438 107.59375 208.003906 C 107.1875 209.484375 106.835938 210.976562 106.539062 212.484375 C 106.242188 213.992188 106 215.507812 105.8125 217.03125 C 105.628906 218.558594 105.5 220.085938 105.429688 221.621094 C 105.355469 223.15625 105.339844 224.691406 105.378906 226.230469 C 105.421875 227.765625 105.519531 229.296875 105.671875 230.828125 C 105.824219 232.359375 106.035156 233.878906 106.300781 235.394531 C 106.566406 236.910156 106.890625 238.414062 107.265625 239.90625 C 107.640625 241.398438 108.074219 242.871094 108.558594 244.332031 C 109.042969 245.792969 109.582031 247.234375 110.171875 248.65625 C 110.761719 250.078125 111.40625 251.472656 112.101562 252.847656 C 112.792969 254.222656 113.539062 255.570312 114.332031 256.890625 C 115.125 258.207031 115.964844 259.496094 116.851562 260.757812 C 117.738281 262.015625 118.671875 263.238281 119.648438 264.429688 C 120.625 265.617188 121.648438 266.769531 122.710938 267.886719 C 123.769531 269 124.871094 270.074219 126.015625 271.109375 C 127.15625 272.144531 128.332031 273.136719 129.546875 274.082031 C 130.761719 275.03125 132.007812 275.933594 133.285156 276.789062 C 134.566406 277.644531 135.875 278.453125 137.214844 279.214844 C 138.554688 279.972656 139.917969 280.683594 141.308594 281.34375 C 142.699219 282.003906 144.113281 282.609375 145.550781 283.167969 C 146.984375 283.722656 148.4375 284.222656 149.910156 284.671875 C 151.382812 285.121094 152.867188 285.515625 154.367188 285.855469 C 155.867188 286.195312 157.378906 286.476562 158.898438 286.707031 C 160.421875 286.933594 161.945312 287.105469 163.480469 287.222656 C 165.011719 287.335938 166.546875 287.398438 168.085938 287.398438 L 168.078125 283.558594 C 166.164062 283.535156 164.257812 283.421875 162.355469 283.214844 C 160.453125 283.007812 158.5625 282.707031 156.691406 282.316406 C 154.816406 281.925781 152.964844 281.441406 151.140625 280.871094 C 149.3125 280.296875 147.515625 279.636719 145.753906 278.890625 C 143.988281 278.144531 142.265625 277.3125 140.582031 276.394531 C 138.898438 275.480469 137.265625 274.484375 135.675781 273.410156 C 134.089844 272.335938 132.558594 271.1875 131.085938 269.960938 C 129.609375 268.738281 128.199219 267.445312 126.847656 266.085938 C 125.5 264.722656 124.21875 263.300781 123.007812 261.8125 C 121.796875 260.328125 120.664062 258.789062 119.601562 257.191406 C 118.542969 255.59375 117.5625 253.953125 116.660156 252.261719 C 115.761719 250.570312 114.945312 248.839844 114.214844 247.066406 C 113.480469 245.296875 112.835938 243.496094 112.28125 241.664062 C 111.726562 239.832031 111.261719 237.976562 110.886719 236.101562 C 110.511719 234.222656 110.226562 232.332031 110.039062 230.429688 C 109.847656 228.523438 109.75 226.617188 109.746094 224.703125 C 109.742188 222.789062 109.832031 220.882812 110.015625 218.980469 C 110.195312 217.078125 110.472656 215.1875 110.839844 213.3125 C 111.207031 211.4375 111.664062 209.582031 112.210938 207.753906 C 112.761719 205.921875 113.398438 204.125 114.121094 202.355469 C 114.84375 200.589844 115.652344 198.863281 116.546875 197.175781 C 117.441406 195.488281 118.414062 193.847656 119.46875 192.257812 C 120.523438 190.664062 121.652344 189.128906 122.855469 187.648438 C 124.0625 186.167969 125.335938 184.75 126.679688 183.394531 C 128.023438 182.039062 129.429688 180.75 130.898438 179.535156 C 132.367188 178.316406 133.894531 177.171875 135.476562 176.105469 C 137.058594 175.039062 138.691406 174.050781 140.371094 173.140625 C 142.050781 172.234375 143.769531 171.410156 145.53125 170.667969 C 147.289062 169.929688 149.082031 169.277344 150.90625 168.710938 C 152.734375 168.148438 154.582031 167.671875 156.453125 167.289062 C 158.324219 166.90625 160.210938 166.613281 162.113281 166.414062 C 164.015625 166.214844 165.921875 166.109375 167.835938 166.09375 L 189.5 166.144531 L 189.488281 162.304688 L 167.824219 162.257812 C 163.714844 162.238281 159.644531 162.621094 155.613281 163.410156 C 151.582031 164.199219 147.671875 165.375 143.878906 166.941406 C 140.085938 168.503906 136.484375 170.429688 133.074219 172.710938 C 129.664062 174.992188 126.515625 177.585938 123.621094 180.492188 Z M 86.167969 224.652344 C 86.171875 225.992188 86.207031 227.332031 86.273438 228.667969 C 86.34375 230.003906 86.445312 231.339844 86.578125 232.671875 C 86.710938 234.003906 86.878906 235.332031 87.078125 236.65625 C 87.277344 237.980469 87.507812 239.300781 87.773438 240.613281 C 88.035156 241.925781 88.332031 243.234375 88.660156 244.53125 C 88.988281 245.832031 89.347656 247.121094 89.738281 248.40625 C 90.128906 249.6875 90.550781 250.957031 91.003906 252.21875 C 91.457031 253.480469 91.941406 254.730469 92.457031 255.96875 C 92.972656 257.207031 93.515625 258.429688 94.09375 259.640625 C 94.667969 260.851562 95.269531 262.050781 95.90625 263.230469 C 96.539062 264.414062 97.199219 265.578125 97.890625 266.726562 C 98.582031 267.878906 99.300781 269.011719 100.046875 270.125 C 100.792969 271.238281 101.5625 272.335938 102.363281 273.410156 C 103.164062 274.488281 103.988281 275.546875 104.839844 276.582031 C 105.691406 277.617188 106.566406 278.632812 107.46875 279.625 C 108.371094 280.621094 109.292969 281.589844 110.242188 282.539062 C 111.191406 283.488281 112.164062 284.414062 113.15625 285.3125 C 114.148438 286.214844 115.164062 287.089844 116.203125 287.941406 C 117.238281 288.792969 118.292969 289.621094 119.371094 290.417969 C 120.449219 291.21875 121.542969 291.992188 122.660156 292.738281 C 123.773438 293.484375 124.90625 294.203125 126.054688 294.890625 C 127.203125 295.582031 128.371094 296.246094 129.550781 296.878906 C 130.734375 297.511719 131.929688 298.117188 133.140625 298.691406 C 134.351562 299.265625 135.578125 299.808594 136.816406 300.324219 C 138.054688 300.839844 139.300781 301.324219 140.5625 301.777344 C 141.824219 302.230469 143.097656 302.652344 144.378906 303.042969 C 145.660156 303.4375 146.949219 303.796875 148.25 304.125 C 149.550781 304.453125 150.855469 304.746094 152.167969 305.011719 C 153.480469 305.273438 154.800781 305.507812 156.125 305.707031 C 157.449219 305.90625 158.777344 306.070312 160.109375 306.203125 C 161.441406 306.339844 162.777344 306.441406 164.113281 306.507812 C 165.453125 306.578125 166.789062 306.613281 168.128906 306.613281 L 168.117188 302.777344 C 166.839844 302.773438 165.566406 302.742188 164.292969 302.675781 C 163.019531 302.609375 161.746094 302.515625 160.476562 302.386719 C 159.207031 302.257812 157.941406 302.101562 156.675781 301.910156 C 155.414062 301.722656 154.15625 301.5 152.90625 301.25 C 151.65625 300.996094 150.410156 300.714844 149.171875 300.402344 C 147.933594 300.089844 146.703125 299.746094 145.480469 299.375 C 144.261719 299.003906 143.046875 298.601562 141.847656 298.167969 C 140.644531 297.734375 139.453125 297.273438 138.273438 296.78125 C 137.09375 296.292969 135.925781 295.773438 134.773438 295.226562 C 133.617188 294.675781 132.476562 294.101562 131.351562 293.5 C 130.226562 292.894531 129.113281 292.265625 128.019531 291.605469 C 126.921875 290.949219 125.84375 290.261719 124.78125 289.550781 C 123.71875 288.839844 122.675781 288.105469 121.648438 287.34375 C 120.625 286.582031 119.617188 285.792969 118.628906 284.980469 C 117.640625 284.171875 116.671875 283.335938 115.726562 282.476562 C 114.777344 281.617188 113.851562 280.738281 112.949219 279.832031 C 112.046875 278.929688 111.164062 278.003906 110.304688 277.058594 C 109.445312 276.109375 108.613281 275.140625 107.800781 274.15625 C 106.988281 273.167969 106.203125 272.160156 105.441406 271.132812 C 104.679688 270.105469 103.941406 269.0625 103.230469 268 C 102.519531 266.9375 101.835938 265.859375 101.175781 264.765625 C 100.519531 263.667969 99.886719 262.558594 99.285156 261.429688 C 98.679688 260.304688 98.105469 259.164062 97.558594 258.011719 C 97.007812 256.855469 96.488281 255.6875 96 254.507812 C 95.507812 253.328125 95.046875 252.136719 94.617188 250.9375 C 94.183594 249.734375 93.78125 248.523438 93.40625 247.300781 C 93.035156 246.078125 92.691406 244.847656 92.378906 243.609375 C 92.066406 242.371094 91.785156 241.128906 91.535156 239.875 C 91.28125 238.625 91.0625 237.367188 90.871094 236.105469 C 90.683594 234.84375 90.523438 233.578125 90.394531 232.308594 C 90.269531 231.039062 90.171875 229.765625 90.105469 228.492188 C 90.042969 227.214844 90.007812 225.941406 90.003906 224.664062 C 90.003906 223.390625 90.03125 222.113281 90.089844 220.839844 C 90.152344 219.566406 90.242188 218.296875 90.363281 217.027344 C 90.488281 215.757812 90.640625 214.492188 90.824219 213.230469 C 91.007812 211.96875 91.222656 210.710938 91.46875 209.460938 C 91.71875 208.210938 91.992188 206.964844 92.300781 205.730469 C 92.609375 204.492188 92.945312 203.265625 93.3125 202.042969 C 93.679688 200.824219 94.078125 199.613281 94.507812 198.414062 C 94.933594 197.214844 95.390625 196.023438 95.875 194.847656 C 96.359375 193.667969 96.875 192.503906 97.417969 191.351562 C 97.960938 190.199219 98.53125 189.0625 99.132812 187.9375 C 99.730469 186.8125 100.355469 185.707031 101.011719 184.613281 C 101.664062 183.519531 102.34375 182.445312 103.050781 181.382812 C 103.757812 180.324219 104.488281 179.285156 105.246094 178.261719 C 106.003906 177.238281 106.789062 176.234375 107.59375 175.25 C 108.402344 174.265625 109.234375 173.300781 110.089844 172.355469 C 110.941406 171.414062 111.820312 170.492188 112.71875 169.589844 C 113.621094 168.691406 114.542969 167.8125 115.484375 166.957031 C 116.429688 166.105469 117.394531 165.273438 118.378906 164.464844 C 119.363281 163.660156 120.367188 162.875 121.390625 162.117188 C 122.414062 161.359375 123.453125 160.628906 124.511719 159.921875 C 125.574219 159.214844 126.648438 158.535156 127.742188 157.882812 C 128.835938 157.226562 129.941406 156.601562 131.066406 156.003906 C 132.191406 155.402344 133.328125 154.832031 134.480469 154.289062 C 135.632812 153.746094 136.796875 153.230469 137.976562 152.746094 C 139.152344 152.261719 140.34375 151.804688 141.542969 151.378906 C 142.742188 150.949219 143.953125 150.550781 145.171875 150.183594 C 146.394531 149.816406 147.621094 149.480469 148.859375 149.171875 C 150.09375 148.863281 151.339844 148.585938 152.589844 148.339844 C 153.839844 148.09375 155.097656 147.878906 156.359375 147.695312 C 157.621094 147.511719 158.886719 147.359375 160.15625 147.234375 C 161.425781 147.113281 162.695312 147.023438 163.96875 146.960938 C 165.246094 146.902344 166.519531 146.875 167.792969 146.875 L 189.4375 146.921875 L 189.425781 143.082031 L 167.785156 143.039062 C 166.445312 143.035156 165.105469 143.066406 163.769531 143.128906 C 162.433594 143.191406 161.097656 143.289062 159.769531 143.414062 C 158.4375 143.542969 157.109375 143.707031 155.785156 143.898438 C 154.460938 144.09375 153.144531 144.320312 151.832031 144.578125 C 150.519531 144.835938 149.214844 145.125 147.917969 145.449219 C 146.617188 145.769531 145.328125 146.125 144.050781 146.511719 C 142.769531 146.898438 141.5 147.3125 140.242188 147.761719 C 138.980469 148.210938 137.734375 148.691406 136.5 149.199219 C 135.261719 149.710938 134.039062 150.25 132.832031 150.820312 C 131.625 151.386719 130.429688 151.988281 129.25 152.617188 C 128.070312 153.246094 126.910156 153.902344 125.761719 154.585938 C 124.613281 155.273438 123.484375 155.988281 122.375 156.726562 C 121.261719 157.46875 120.171875 158.238281 119.097656 159.03125 C 118.023438 159.828125 116.972656 160.648438 115.9375 161.496094 C 114.90625 162.34375 113.894531 163.214844 112.902344 164.113281 C 111.914062 165.007812 110.945312 165.929688 110.003906 166.875 C 109.058594 167.816406 108.136719 168.785156 107.242188 169.773438 C 106.34375 170.765625 105.472656 171.777344 104.625 172.808594 C 103.777344 173.84375 102.957031 174.894531 102.160156 175.96875 C 101.367188 177.042969 100.597656 178.132812 99.855469 179.246094 C 99.117188 180.355469 98.402344 181.484375 97.714844 182.632812 C 97.03125 183.777344 96.375 184.941406 95.746094 186.121094 C 95.117188 187.300781 94.519531 188.492188 93.949219 189.703125 C 93.378906 190.910156 92.839844 192.132812 92.328125 193.371094 C 91.820312 194.605469 91.339844 195.851562 90.890625 197.113281 C 90.445312 198.371094 90.027344 199.640625 89.640625 200.921875 C 89.253906 202.199219 88.902344 203.488281 88.578125 204.785156 C 88.253906 206.085938 87.964844 207.390625 87.707031 208.703125 C 87.449219 210.015625 87.222656 211.332031 87.027344 212.65625 C 86.835938 213.980469 86.671875 215.308594 86.546875 216.636719 C 86.417969 217.96875 86.320312 219.304688 86.257812 220.640625 C 86.195312 221.976562 86.164062 223.316406 86.167969 224.652344 Z M 86.167969 224.652344 " clip-rule="nonzero"/></clipPath><linearGradient x1="-4011.400947" gradientTransform="matrix(0.506718, 0.00105864, 0.00105864, 0.506718, 2115.314854, -1604.910181)" y1="3456.605038" x2="-3758.998108" gradientUnits="userSpaceOnUse" y2="3737.051707" id="a9344da521"><stop stop-opacity="1" stop-color="rgb(59.999084%, 100%, 100%)" offset="0"/><stop stop-opacity="1" stop-color="rgb(59.999084%, 100%, 100%)" offset="0.25"/><stop stop-opacity="1" stop-color="rgb(59.999084%, 100%, 100%)" offset="0.363194"/><stop stop-opacity="1" stop-color="rgb(59.999084%, 100%, 100%)" offset="0.375"/><stop stop-opacity="1" stop-color="rgb(59.999084%, 100%, 100%)" offset="0.4375"/><stop stop-opacity="1" stop-color="rgb(60.063171%, 99.890137%, 99.967957%)" offset="0.46875"/><stop stop-opacity="1" stop-color="rgb(60.791016%, 98.669434%, 99.607849%)" offset="0.472656"/><stop stop-opacity="1" stop-color="rgb(61.454773%, 97.558594%, 99.281311%)" offset="0.476562"/><stop stop-opacity="1" stop-color="rgb(62.117004%, 96.446228%, 98.953247%)" offset="0.480469"/><stop stop-opacity="1" stop-color="rgb(62.780762%, 95.333862%, 98.626709%)" offset="0.484375"/><stop stop-opacity="1" stop-color="rgb(63.444519%, 94.221497%, 98.300171%)" offset="0.488281"/><stop stop-opacity="1" stop-color="rgb(64.108276%, 93.110657%, 97.973633%)" offset="0.492188"/><stop stop-opacity="1" stop-color="rgb(64.770508%, 91.998291%, 97.645569%)" offset="0.496094"/><stop stop-opacity="1" stop-color="rgb(65.434265%, 90.887451%, 97.319031%)" offset="0.5"/><stop stop-opacity="1" stop-color="rgb(66.096497%, 89.775085%, 96.990967%)" offset="0.503906"/><stop stop-opacity="1" stop-color="rgb(66.760254%, 88.66272%, 96.664429%)" offset="0.507812"/><stop stop-opacity="1" stop-color="rgb(67.422485%, 87.550354%, 96.337891%)" offset="0.511719"/><stop stop-opacity="1" stop-color="rgb(68.086243%, 86.439514%, 96.011353%)" offset="0.515625"/><stop stop-opacity="1" stop-color="rgb(68.748474%, 85.327148%, 95.683289%)" offset="0.519531"/><stop stop-opacity="1" stop-color="rgb(69.412231%, 84.216309%, 95.35675%)" offset="0.523438"/><stop stop-opacity="1" stop-color="rgb(70.074463%, 83.103943%, 95.030212%)" offset="0.527344"/><stop stop-opacity="1" stop-color="rgb(70.73822%, 81.991577%, 94.703674%)" offset="0.53125"/><stop stop-opacity="1" stop-color="rgb(71.401978%, 80.879211%, 94.37561%)" offset="0.535156"/><stop stop-opacity="1" stop-color="rgb(72.065735%, 79.768372%, 94.049072%)" offset="0.539062"/><stop stop-opacity="1" stop-color="rgb(72.727966%, 78.656006%, 93.721008%)" offset="0.542969"/><stop stop-opacity="1" stop-color="rgb(73.391724%, 77.545166%, 93.39447%)" offset="0.546875"/><stop stop-opacity="1" stop-color="rgb(74.053955%, 76.4328%, 93.067932%)" offset="0.550781"/><stop stop-opacity="1" stop-color="rgb(74.717712%, 75.320435%, 92.741394%)" offset="0.554688"/><stop stop-opacity="1" stop-color="rgb(75.379944%, 74.208069%, 92.41333%)" offset="0.558594"/><stop stop-opacity="1" stop-color="rgb(76.043701%, 73.097229%, 92.086792%)" offset="0.5625"/><stop stop-opacity="1" stop-color="rgb(76.705933%, 71.984863%, 91.758728%)" offset="0.566406"/><stop stop-opacity="1" stop-color="rgb(77.36969%, 70.874023%, 91.43219%)" offset="0.570312"/><stop stop-opacity="1" stop-color="rgb(78.031921%, 69.761658%, 91.105652%)" offset="0.574219"/><stop stop-opacity="1" stop-color="rgb(78.695679%, 68.649292%, 90.779114%)" offset="0.578125"/><stop stop-opacity="1" stop-color="rgb(79.35791%, 67.536926%, 90.45105%)" offset="0.582031"/><stop stop-opacity="1" stop-color="rgb(80.021667%, 66.426086%, 90.124512%)" offset="0.585938"/><stop stop-opacity="1" stop-color="rgb(80.685425%, 65.313721%, 89.797974%)" offset="0.589844"/><stop stop-opacity="1" stop-color="rgb(81.349182%, 64.202881%, 89.471436%)" offset="0.59375"/><stop stop-opacity="1" stop-color="rgb(82.011414%, 63.090515%, 89.143372%)" offset="0.597656"/><stop stop-opacity="1" stop-color="rgb(82.675171%, 61.978149%, 88.816833%)" offset="0.601562"/><stop stop-opacity="1" stop-color="rgb(83.337402%, 60.865784%, 88.48877%)" offset="0.605469"/><stop stop-opacity="1" stop-color="rgb(84.00116%, 59.754944%, 88.162231%)" offset="0.609375"/><stop stop-opacity="1" stop-color="rgb(84.663391%, 58.642578%, 87.835693%)" offset="0.613281"/><stop stop-opacity="1" stop-color="rgb(85.327148%, 57.531738%, 87.509155%)" offset="0.617188"/><stop stop-opacity="1" stop-color="rgb(85.98938%, 56.419373%, 87.181091%)" offset="0.621094"/><stop stop-opacity="1" stop-color="rgb(86.653137%, 55.307007%, 86.854553%)" offset="0.625"/><stop stop-opacity="1" stop-color="rgb(87.315369%, 54.194641%, 86.526489%)" offset="0.628906"/><stop stop-opacity="1" stop-color="rgb(87.979126%, 53.083801%, 86.199951%)" offset="0.632813"/><stop stop-opacity="1" stop-color="rgb(88.642883%, 51.971436%, 85.873413%)" offset="0.636719"/><stop stop-opacity="1" stop-color="rgb(89.306641%, 50.860596%, 85.546875%)" offset="0.640625"/><stop stop-opacity="1" stop-color="rgb(89.968872%, 49.74823%, 85.218811%)" offset="0.644531"/><stop stop-opacity="1" stop-color="rgb(90.632629%, 48.63739%, 84.892273%)" offset="0.648438"/><stop stop-opacity="1" stop-color="rgb(91.294861%, 47.525024%, 84.565735%)" offset="0.652344"/><stop stop-opacity="1" stop-color="rgb(91.958618%, 46.412659%, 84.239197%)" offset="0.65625"/><stop stop-opacity="1" stop-color="rgb(92.62085%, 45.300293%, 83.911133%)" offset="0.660156"/><stop stop-opacity="1" stop-color="rgb(93.284607%, 44.189453%, 83.584595%)" offset="0.664062"/><stop stop-opacity="1" stop-color="rgb(93.946838%, 43.077087%, 83.256531%)" offset="0.667969"/><stop stop-opacity="1" stop-color="rgb(94.610596%, 41.966248%, 82.929993%)" offset="0.671875"/><stop stop-opacity="1" stop-color="rgb(95.272827%, 40.853882%, 82.603455%)" offset="0.675781"/><stop stop-opacity="1" stop-color="rgb(95.936584%, 39.741516%, 82.276917%)" offset="0.679688"/><stop stop-opacity="1" stop-color="rgb(96.217346%, 39.27002%, 82.138062%)" offset="0.683594"/><stop stop-opacity="1" stop-color="rgb(96.499634%, 38.798523%, 81.999207%)" offset="0.6875"/><stop stop-opacity="1" stop-color="rgb(96.499634%, 38.798523%, 81.999207%)" offset="0.75"/><stop stop-opacity="1" stop-color="rgb(96.499634%, 38.798523%, 81.999207%)" offset="1"/></linearGradient><clipPath id="e635a8db0a"><path d="M 245 142 L 333 142 L 333 205 L 245 205 Z M 245 142 " clip-rule="nonzero"/></clipPath><clipPath id="9190698856"><path d="M 277.695312 237.03125 L 214.441406 173.777344 L 274.257812 113.960938 L 337.507812 177.214844 Z M 277.695312 237.03125 " clip-rule="nonzero"/></clipPath><clipPath id="613fee4376"><path d="M 277.695312 237.03125 L 214.441406 173.777344 L 274.257812 113.960938 L 337.507812 177.214844 Z M 277.695312 237.03125 " clip-rule="nonzero"/></clipPath><clipPath id="cf264e5c16"><path d="M 291.617188 181.488281 L 245.289062 181.535156 L 245.292969 185.382812 L 291.613281 185.332031 Z M 245.28125 146.875 L 277.796875 146.84375 L 277.800781 142.992188 L 245.28125 143.03125 Z M 245.300781 156.488281 L 300.21875 156.433594 L 300.222656 152.582031 L 245.296875 152.640625 Z M 245.296875 200.789062 L 245.296875 204.632812 L 307.417969 204.570312 L 307.4375 200.738281 Z M 245.28125 195.023438 L 319.6875 194.941406 L 319.6875 191.097656 L 245.292969 191.164062 Z M 245.273438 166.140625 L 316.734375 166.050781 L 316.738281 162.210938 L 245.289062 162.28125 Z M 245.292969 175.753906 L 332.105469 175.664062 L 332.113281 171.820312 L 245.292969 171.910156 Z M 245.292969 175.753906 " clip-rule="nonzero"/></clipPath><linearGradient x1="-3630.19904" gradientTransform="matrix(0.507633, -0.000521883, -0.000521883, 0.507633, 2089.727954, -1460.368385)" y1="3215.53" x2="-3459.001225" gradientUnits="userSpaceOnUse" y2="3215.53" id="3a5b409915"><stop stop-opacity="1" stop-color="rgb(17.999268%, 46.699524%, 65.899658%)" offset="0"/><stop stop-opacity="1" stop-color="rgb(18.025208%, 46.586609%, 65.870667%)" offset="0.0078125"/><stop stop-opacity="1" stop-color="rgb(18.077087%, 46.360779%, 65.811157%)" offset="0.015625"/><stop stop-opacity="1" stop-color="rgb(18.128967%, 46.133423%, 65.753174%)" offset="0.0234375"/><stop stop-opacity="1" stop-color="rgb(18.180847%, 45.906067%, 65.69519%)" offset="0.03125"/><stop stop-opacity="1" stop-color="rgb(18.234253%, 45.678711%, 65.635681%)" offset="0.0390625"/><stop stop-opacity="1" stop-color="rgb(18.286133%, 45.451355%, 65.577698%)" offset="0.046875"/><stop stop-opacity="1" stop-color="rgb(18.338013%, 45.222473%, 65.518188%)" offset="0.0546875"/><stop stop-opacity="1" stop-color="rgb(18.391418%, 44.995117%, 65.460205%)" offset="0.0625"/><stop stop-opacity="1" stop-color="rgb(18.443298%, 44.767761%, 65.400696%)" offset="0.0703125"/><stop stop-opacity="1" stop-color="rgb(18.495178%, 44.540405%, 65.342712%)" offset="0.078125"/><stop stop-opacity="1" stop-color="rgb(18.548584%, 44.313049%, 65.284729%)" offset="0.0859375"/><stop stop-opacity="1" stop-color="rgb(18.600464%, 44.085693%, 65.22522%)" offset="0.09375"/><stop stop-opacity="1" stop-color="rgb(18.652344%, 43.858337%, 65.167236%)" offset="0.101563"/><stop stop-opacity="1" stop-color="rgb(18.70575%, 43.630981%, 65.107727%)" offset="0.109375"/><stop stop-opacity="1" stop-color="rgb(18.757629%, 43.403625%, 65.049744%)" offset="0.117188"/><stop stop-opacity="1" stop-color="rgb(18.809509%, 43.17627%, 64.99176%)" offset="0.125"/><stop stop-opacity="1" stop-color="rgb(18.862915%, 42.948914%, 64.932251%)" offset="0.132812"/><stop stop-opacity="1" stop-color="rgb(18.914795%, 42.721558%, 64.874268%)" offset="0.140625"/><stop stop-opacity="1" stop-color="rgb(18.966675%, 42.494202%, 64.814758%)" offset="0.148438"/><stop stop-opacity="1" stop-color="rgb(19.020081%, 42.26532%, 64.756775%)" offset="0.15625"/><stop stop-opacity="1" stop-color="rgb(19.07196%, 42.037964%, 64.697266%)" offset="0.164063"/><stop stop-opacity="1" stop-color="rgb(19.12384%, 41.810608%, 64.639282%)" offset="0.171875"/><stop stop-opacity="1" stop-color="rgb(19.177246%, 41.583252%, 64.581299%)" offset="0.179688"/><stop stop-opacity="1" stop-color="rgb(19.229126%, 41.355896%, 64.52179%)" offset="0.1875"/><stop stop-opacity="1" stop-color="rgb(19.281006%, 41.12854%, 64.463806%)" offset="0.195313"/><stop stop-opacity="1" stop-color="rgb(19.334412%, 40.901184%, 64.404297%)" offset="0.203125"/><stop stop-opacity="1" stop-color="rgb(19.386292%, 40.673828%, 64.346313%)" offset="0.210938"/><stop stop-opacity="1" stop-color="rgb(19.438171%, 40.446472%, 64.286804%)" offset="0.21875"/><stop stop-opacity="1" stop-color="rgb(19.491577%, 40.219116%, 64.228821%)" offset="0.226563"/><stop stop-opacity="1" stop-color="rgb(19.543457%, 39.99176%, 64.170837%)" offset="0.234375"/><stop stop-opacity="1" stop-color="rgb(19.595337%, 39.764404%, 64.111328%)" offset="0.242188"/><stop stop-opacity="1" stop-color="rgb(19.648743%, 39.537048%, 64.053345%)" offset="0.25"/><stop stop-opacity="1" stop-color="rgb(19.700623%, 39.308167%, 63.993835%)" offset="0.257812"/><stop stop-opacity="1" stop-color="rgb(19.752502%, 39.080811%, 63.935852%)" offset="0.265625"/><stop stop-opacity="1" stop-color="rgb(19.804382%, 38.853455%, 63.877869%)" offset="0.273438"/><stop stop-opacity="1" stop-color="rgb(19.857788%, 38.626099%, 63.818359%)" offset="0.28125"/><stop stop-opacity="1" stop-color="rgb(19.909668%, 38.398743%, 63.760376%)" offset="0.289062"/><stop stop-opacity="1" stop-color="rgb(19.961548%, 38.171387%, 63.700867%)" offset="0.296875"/><stop stop-opacity="1" stop-color="rgb(20.014954%, 37.944031%, 63.642883%)" offset="0.304688"/><stop stop-opacity="1" stop-color="rgb(20.066833%, 37.716675%, 63.583374%)" offset="0.3125"/><stop stop-opacity="1" stop-color="rgb(20.118713%, 37.489319%, 63.525391%)" offset="0.320312"/><stop stop-opacity="1" stop-color="rgb(20.172119%, 37.261963%, 63.467407%)" offset="0.328125"/><stop stop-opacity="1" stop-color="rgb(20.223999%, 37.034607%, 63.407898%)" offset="0.335938"/><stop stop-opacity="1" stop-color="rgb(20.275879%, 36.807251%, 63.349915%)" offset="0.34375"/><stop stop-opacity="1" stop-color="rgb(20.329285%, 36.579895%, 63.290405%)" offset="0.351562"/><stop stop-opacity="1" stop-color="rgb(20.381165%, 36.351013%, 63.232422%)" offset="0.359375"/><stop stop-opacity="1" stop-color="rgb(20.433044%, 36.123657%, 63.172913%)" offset="0.367188"/><stop stop-opacity="1" stop-color="rgb(20.48645%, 35.896301%, 63.114929%)" offset="0.375"/><stop stop-opacity="1" stop-color="rgb(20.53833%, 35.668945%, 63.056946%)" offset="0.382813"/><stop stop-opacity="1" stop-color="rgb(20.59021%, 35.441589%, 62.997437%)" offset="0.390625"/><stop stop-opacity="1" stop-color="rgb(20.643616%, 35.214233%, 62.939453%)" offset="0.398438"/><stop stop-opacity="1" stop-color="rgb(20.695496%, 34.986877%, 62.879944%)" offset="0.40625"/><stop stop-opacity="1" stop-color="rgb(20.747375%, 34.759521%, 62.82196%)" offset="0.414062"/><stop stop-opacity="1" stop-color="rgb(20.800781%, 34.532166%, 62.762451%)" offset="0.421875"/><stop stop-opacity="1" stop-color="rgb(20.852661%, 34.30481%, 62.704468%)" offset="0.429688"/><stop stop-opacity="1" stop-color="rgb(20.904541%, 34.077454%, 62.646484%)" offset="0.4375"/><stop stop-opacity="1" stop-color="rgb(20.957947%, 33.850098%, 62.586975%)" offset="0.445312"/><stop stop-opacity="1" stop-color="rgb(21.009827%, 33.622742%, 62.528992%)" offset="0.453125"/><stop stop-opacity="1" stop-color="rgb(21.061707%, 33.39386%, 62.469482%)" offset="0.460938"/><stop stop-opacity="1" stop-color="rgb(21.115112%, 33.166504%, 62.411499%)" offset="0.46875"/><stop stop-opacity="1" stop-color="rgb(21.166992%, 32.939148%, 62.353516%)" offset="0.476563"/><stop stop-opacity="1" stop-color="rgb(21.218872%, 32.711792%, 62.294006%)" offset="0.484375"/><stop stop-opacity="1" stop-color="rgb(21.272278%, 32.484436%, 62.236023%)" offset="0.492188"/><stop stop-opacity="1" stop-color="rgb(21.324158%, 32.25708%, 62.176514%)" offset="0.5"/><stop stop-opacity="1" stop-color="rgb(21.376038%, 32.029724%, 62.11853%)" offset="0.507813"/><stop stop-opacity="1" stop-color="rgb(21.429443%, 31.802368%, 62.059021%)" offset="0.515625"/><stop stop-opacity="1" stop-color="rgb(21.481323%, 31.575012%, 62.001038%)" offset="0.523438"/><stop stop-opacity="1" stop-color="rgb(21.533203%, 31.347656%, 61.943054%)" offset="0.53125"/><stop stop-opacity="1" stop-color="rgb(21.585083%, 31.1203%, 61.883545%)" offset="0.539063"/><stop stop-opacity="1" stop-color="rgb(21.638489%, 30.892944%, 61.825562%)" offset="0.546875"/><stop stop-opacity="1" stop-color="rgb(21.690369%, 30.665588%, 61.766052%)" offset="0.554688"/><stop stop-opacity="1" stop-color="rgb(21.742249%, 30.436707%, 61.708069%)" offset="0.5625"/><stop stop-opacity="1" stop-color="rgb(21.795654%, 30.209351%, 61.64856%)" offset="0.570312"/><stop stop-opacity="1" stop-color="rgb(21.847534%, 29.981995%, 61.590576%)" offset="0.578125"/><stop stop-opacity="1" stop-color="rgb(21.899414%, 29.754639%, 61.532593%)" offset="0.585938"/><stop stop-opacity="1" stop-color="rgb(21.95282%, 29.527283%, 61.473083%)" offset="0.59375"/><stop stop-opacity="1" stop-color="rgb(22.0047%, 29.299927%, 61.4151%)" offset="0.601563"/><stop stop-opacity="1" stop-color="rgb(22.05658%, 29.072571%, 61.355591%)" offset="0.609375"/><stop stop-opacity="1" stop-color="rgb(22.109985%, 28.845215%, 61.297607%)" offset="0.617188"/><stop stop-opacity="1" stop-color="rgb(22.161865%, 28.617859%, 61.239624%)" offset="0.625"/><stop stop-opacity="1" stop-color="rgb(22.213745%, 28.390503%, 61.180115%)" offset="0.632813"/><stop stop-opacity="1" stop-color="rgb(22.267151%, 28.163147%, 61.122131%)" offset="0.640625"/><stop stop-opacity="1" stop-color="rgb(22.319031%, 27.935791%, 61.062622%)" offset="0.648438"/><stop stop-opacity="1" stop-color="rgb(22.370911%, 27.708435%, 61.004639%)" offset="0.65625"/><stop stop-opacity="1" stop-color="rgb(22.424316%, 27.479553%, 60.945129%)" offset="0.664062"/><stop stop-opacity="1" stop-color="rgb(22.476196%, 27.252197%, 60.887146%)" offset="0.671875"/><stop stop-opacity="1" stop-color="rgb(22.528076%, 27.024841%, 60.829163%)" offset="0.679688"/><stop stop-opacity="1" stop-color="rgb(22.581482%, 26.797485%, 60.769653%)" offset="0.6875"/><stop stop-opacity="1" stop-color="rgb(22.633362%, 26.570129%, 60.71167%)" offset="0.695313"/><stop stop-opacity="1" stop-color="rgb(22.685242%, 26.342773%, 60.652161%)" offset="0.703125"/><stop stop-opacity="1" stop-color="rgb(22.738647%, 26.115417%, 60.594177%)" offset="0.710938"/><stop stop-opacity="1" stop-color="rgb(22.790527%, 25.888062%, 60.534668%)" offset="0.71875"/><stop stop-opacity="1" stop-color="rgb(22.842407%, 25.660706%, 60.476685%)" offset="0.726563"/><stop stop-opacity="1" stop-color="rgb(22.895813%, 25.43335%, 60.418701%)" offset="0.734375"/><stop stop-opacity="1" stop-color="rgb(22.947693%, 25.205994%, 60.359192%)" offset="0.742188"/><stop stop-opacity="1" stop-color="rgb(22.999573%, 24.978638%, 60.301208%)" offset="0.75"/><stop stop-opacity="1" stop-color="rgb(23.052979%, 24.751282%, 60.241699%)" offset="0.757812"/><stop stop-opacity="1" stop-color="rgb(23.104858%, 24.5224%, 60.183716%)" offset="0.765625"/><stop stop-opacity="1" stop-color="rgb(23.156738%, 24.295044%, 60.124207%)" offset="0.773438"/><stop stop-opacity="1" stop-color="rgb(23.210144%, 24.067688%, 60.066223%)" offset="0.78125"/><stop stop-opacity="1" stop-color="rgb(23.262024%, 23.840332%, 60.00824%)" offset="0.789063"/><stop stop-opacity="1" stop-color="rgb(23.313904%, 23.612976%, 59.94873%)" offset="0.796875"/><stop stop-opacity="1" stop-color="rgb(23.36731%, 23.38562%, 59.890747%)" offset="0.804688"/><stop stop-opacity="1" stop-color="rgb(23.419189%, 23.158264%, 59.831238%)" offset="0.8125"/><stop stop-opacity="1" stop-color="rgb(23.471069%, 22.930908%, 59.773254%)" offset="0.820313"/><stop stop-opacity="1" stop-color="rgb(23.522949%, 22.703552%, 59.715271%)" offset="0.828125"/><stop stop-opacity="1" stop-color="rgb(23.576355%, 22.476196%, 59.655762%)" offset="0.835938"/><stop stop-opacity="1" stop-color="rgb(23.628235%, 22.24884%, 59.597778%)" offset="0.84375"/><stop stop-opacity="1" stop-color="rgb(23.680115%, 22.021484%, 59.538269%)" offset="0.851562"/><stop stop-opacity="1" stop-color="rgb(23.733521%, 21.794128%, 59.480286%)" offset="0.859375"/><stop stop-opacity="1" stop-color="rgb(23.7854%, 21.565247%, 59.420776%)" offset="0.867188"/><stop stop-opacity="1" stop-color="rgb(23.83728%, 21.337891%, 59.362793%)" offset="0.875"/><stop stop-opacity="1" stop-color="rgb(23.890686%, 21.110535%, 59.30481%)" offset="0.882813"/><stop stop-opacity="1" stop-color="rgb(23.942566%, 20.883179%, 59.2453%)" offset="0.890625"/><stop stop-opacity="1" stop-color="rgb(23.994446%, 20.655823%, 59.187317%)" offset="0.898438"/><stop stop-opacity="1" stop-color="rgb(24.047852%, 20.428467%, 59.127808%)" offset="0.90625"/><stop stop-opacity="1" stop-color="rgb(24.099731%, 20.201111%, 59.069824%)" offset="0.914063"/><stop stop-opacity="1" stop-color="rgb(24.151611%, 19.973755%, 59.010315%)" offset="0.921875"/><stop stop-opacity="1" stop-color="rgb(24.205017%, 19.746399%, 58.952332%)" offset="0.929688"/><stop stop-opacity="1" stop-color="rgb(24.256897%, 19.519043%, 58.894348%)" offset="0.9375"/><stop stop-opacity="1" stop-color="rgb(24.308777%, 19.291687%, 58.834839%)" offset="0.945313"/><stop stop-opacity="1" stop-color="rgb(24.362183%, 19.064331%, 58.776855%)" offset="0.953125"/><stop stop-opacity="1" stop-color="rgb(24.414062%, 18.836975%, 58.717346%)" offset="0.960938"/><stop stop-opacity="1" stop-color="rgb(24.465942%, 18.608093%, 58.659363%)" offset="0.96875"/><stop stop-opacity="1" stop-color="rgb(24.519348%, 18.380737%, 58.601379%)" offset="0.976563"/><stop stop-opacity="1" stop-color="rgb(24.571228%, 18.153381%, 58.54187%)" offset="0.984375"/><stop stop-opacity="1" stop-color="rgb(24.623108%, 17.926025%, 58.483887%)" offset="0.992188"/><stop stop-opacity="1" stop-color="rgb(24.674988%, 17.706299%, 58.427429%)" offset="1"/></linearGradient><clipPath id="01ae70e7ff"><path d="M 167 51 L 250 51 L 250 307 L 167 307 Z M 167 51 " clip-rule="nonzero"/></clipPath><clipPath id="9b3a461280"><path d="M 184.660156 323.554688 L 49.902344 188.796875 L 187.410156 51.289062 L 322.167969 186.046875 Z M 184.660156 323.554688 " clip-rule="nonzero"/></clipPath><clipPath id="366b45bf0e"><path d="M 184.660156 323.554688 L 49.902344 188.796875 L 187.410156 51.289062 L 322.167969 186.046875 Z M 184.660156 323.554688 " clip-rule="nonzero"/></clipPath><clipPath id="c125ca6fee"><path d="M 167.566406 254.746094 L 167.574219 258.582031 C 168.675781 258.582031 169.777344 258.527344 170.875 258.421875 C 171.972656 258.316406 173.0625 258.152344 174.144531 257.9375 C 175.222656 257.726562 176.292969 257.457031 177.347656 257.140625 C 178.402344 256.820312 179.4375 256.449219 180.457031 256.027344 C 181.472656 255.609375 182.46875 255.136719 183.441406 254.621094 C 184.410156 254.101562 185.355469 253.535156 186.269531 252.925781 C 187.1875 252.3125 188.070312 251.660156 188.921875 250.960938 C 189.773438 250.261719 190.585938 249.523438 191.367188 248.746094 C 192.144531 247.964844 192.882812 247.152344 193.582031 246.300781 C 194.28125 245.449219 194.933594 244.566406 195.546875 243.648438 C 196.15625 242.734375 196.722656 241.789062 197.242188 240.816406 C 197.757812 239.847656 198.230469 238.851562 198.652344 237.835938 C 199.070312 236.816406 199.441406 235.78125 199.761719 234.726562 C 200.078125 233.671875 200.347656 232.601562 200.5625 231.519531 C 200.773438 230.441406 200.9375 229.351562 201.042969 228.253906 C 201.152344 227.15625 201.203125 226.054688 201.203125 224.953125 L 200.925781 64.804688 L 197.082031 60.960938 L 197.367188 224.945312 C 197.367188 225.925781 197.320312 226.898438 197.226562 227.871094 C 197.132812 228.84375 196.988281 229.808594 196.800781 230.765625 C 196.609375 231.726562 196.375 232.671875 196.089844 233.605469 C 195.808594 234.542969 195.480469 235.460938 195.109375 236.363281 C 194.734375 237.265625 194.320312 238.144531 193.859375 239.007812 C 193.398438 239.867188 192.898438 240.703125 192.355469 241.515625 C 191.816406 242.328125 191.234375 243.109375 190.617188 243.863281 C 189.996094 244.617188 189.34375 245.339844 188.652344 246.03125 C 187.960938 246.722656 187.242188 247.375 186.484375 247.996094 C 185.730469 248.613281 184.949219 249.195312 184.136719 249.734375 C 183.324219 250.277344 182.488281 250.777344 181.628906 251.238281 C 180.765625 251.695312 179.886719 252.113281 178.984375 252.488281 C 178.082031 252.859375 177.164062 253.1875 176.226562 253.46875 C 175.292969 253.753906 174.347656 253.988281 173.386719 254.179688 C 172.429688 254.367188 171.464844 254.511719 170.492188 254.605469 C 169.519531 254.699219 168.546875 254.746094 167.566406 254.746094 Z M 187.761719 224.945312 C 187.761719 225.605469 187.726562 226.269531 187.664062 226.929688 C 187.597656 227.589844 187.503906 228.242188 187.375 228.894531 C 187.246094 229.542969 187.085938 230.1875 186.890625 230.820312 C 186.699219 231.453125 186.476562 232.078125 186.226562 232.691406 C 185.972656 233.300781 185.6875 233.902344 185.378906 234.484375 C 185.066406 235.070312 184.726562 235.636719 184.359375 236.1875 C 183.992188 236.738281 183.597656 237.269531 183.175781 237.78125 C 182.757812 238.292969 182.3125 238.785156 181.84375 239.25 C 181.375 239.71875 180.886719 240.164062 180.375 240.582031 C 179.863281 241.003906 179.332031 241.398438 178.78125 241.765625 C 178.230469 242.132812 177.660156 242.472656 177.078125 242.785156 C 176.492188 243.097656 175.894531 243.378906 175.28125 243.632812 C 174.671875 243.886719 174.046875 244.109375 173.414062 244.300781 C 172.777344 244.492188 172.136719 244.652344 171.488281 244.78125 C 170.835938 244.910156 170.179688 245.007812 169.523438 245.070312 C 168.863281 245.136719 168.199219 245.167969 167.535156 245.167969 L 167.542969 249.003906 C 168.332031 249.003906 169.117188 248.964844 169.902344 248.886719 C 170.6875 248.808594 171.46875 248.695312 172.242188 248.542969 C 173.015625 248.386719 173.777344 248.199219 174.53125 247.96875 C 175.285156 247.742188 176.027344 247.476562 176.753906 247.175781 C 177.484375 246.875 178.195312 246.539062 178.890625 246.167969 C 179.585938 245.796875 180.257812 245.390625 180.914062 244.953125 C 181.570312 244.515625 182.199219 244.050781 182.808594 243.550781 C 183.417969 243.050781 184 242.523438 184.558594 241.964844 C 185.113281 241.410156 185.644531 240.824219 186.140625 240.21875 C 186.640625 239.609375 187.109375 238.976562 187.546875 238.320312 C 187.984375 237.667969 188.390625 236.992188 188.757812 236.296875 C 189.128906 235.601562 189.464844 234.890625 189.769531 234.164062 C 190.070312 233.433594 190.332031 232.695312 190.5625 231.9375 C 190.789062 231.183594 190.980469 230.421875 191.132812 229.648438 C 191.289062 228.875 191.402344 228.097656 191.480469 227.3125 C 191.558594 226.527344 191.59375 225.738281 191.59375 224.949219 L 191.304688 55.1875 L 187.472656 51.351562 Z M 195.457031 252.839844 C 193.632812 254.671875 191.644531 256.308594 189.496094 257.75 C 187.347656 259.1875 185.074219 260.398438 182.683594 261.386719 C 180.289062 262.375 177.824219 263.117188 175.28125 263.613281 C 172.742188 264.109375 170.175781 264.355469 167.585938 264.339844 L 167.589844 268.175781 C 169.007812 268.179688 170.421875 268.113281 171.832031 267.976562 C 173.242188 267.839844 174.644531 267.632812 176.035156 267.359375 C 177.425781 267.085938 178.796875 266.742188 180.152344 266.332031 C 181.507812 265.925781 182.839844 265.449219 184.148438 264.910156 C 185.457031 264.367188 186.738281 263.765625 187.984375 263.097656 C 189.234375 262.433594 190.449219 261.707031 191.625 260.921875 C 192.800781 260.136719 193.9375 259.292969 195.03125 258.398438 C 196.128906 257.5 197.175781 256.550781 198.175781 255.550781 C 199.175781 254.550781 200.125 253.503906 201.023438 252.40625 C 201.917969 251.3125 202.761719 250.179688 203.546875 249 C 204.332031 247.824219 205.058594 246.609375 205.722656 245.359375 C 206.390625 244.113281 206.992188 242.832031 207.535156 241.523438 C 208.074219 240.214844 208.550781 238.882812 208.957031 237.527344 C 209.367188 236.171875 209.710938 234.800781 209.984375 233.410156 C 210.257812 232.019531 210.464844 230.617188 210.601562 229.207031 C 210.738281 227.796875 210.804688 226.382812 210.800781 224.964844 L 210.535156 74.414062 L 206.695312 70.574219 L 206.960938 224.964844 C 206.972656 227.554688 206.730469 230.121094 206.234375 232.664062 C 205.738281 235.203125 204.992188 237.671875 204.007812 240.0625 C 203.019531 242.457031 201.804688 244.726562 200.367188 246.878906 C 198.925781 249.027344 197.292969 251.015625 195.457031 252.839844 Z M 222.640625 280.023438 C 220.847656 281.828125 218.964844 283.539062 217 285.15625 C 215.035156 286.777344 212.996094 288.292969 210.878906 289.707031 C 208.765625 291.125 206.585938 292.429688 204.339844 293.628906 C 202.09375 294.832031 199.792969 295.914062 197.4375 296.886719 C 195.085938 297.859375 192.6875 298.710938 190.25 299.445312 C 187.808594 300.179688 185.339844 300.792969 182.839844 301.28125 C 180.339844 301.769531 177.820312 302.136719 175.28125 302.375 C 172.746094 302.617188 170.199219 302.730469 167.652344 302.71875 L 167.65625 306.550781 C 168.992188 306.550781 170.328125 306.523438 171.660156 306.460938 C 172.996094 306.394531 174.328125 306.300781 175.65625 306.171875 C 176.988281 306.042969 178.3125 305.882812 179.636719 305.6875 C 180.957031 305.496094 182.273438 305.269531 183.582031 305.011719 C 184.894531 304.75 186.195312 304.460938 187.492188 304.140625 C 188.789062 303.816406 190.074219 303.460938 191.351562 303.078125 C 192.632812 302.691406 193.898438 302.273438 195.15625 301.828125 C 196.414062 301.378906 197.660156 300.898438 198.894531 300.390625 C 200.128906 299.882812 201.347656 299.34375 202.554688 298.773438 C 203.761719 298.203125 204.957031 297.605469 206.132812 296.976562 C 207.308594 296.347656 208.472656 295.691406 209.617188 295.007812 C 210.761719 294.324219 211.890625 293.609375 213 292.867188 C 214.109375 292.128906 215.199219 291.359375 216.273438 290.566406 C 217.34375 289.773438 218.394531 288.953125 219.429688 288.105469 C 220.460938 287.261719 221.46875 286.390625 222.457031 285.492188 C 223.445312 284.597656 224.414062 283.679688 225.355469 282.734375 C 226.300781 281.792969 227.21875 280.824219 228.113281 279.835938 C 229.011719 278.847656 229.882812 277.839844 230.726562 276.808594 C 231.574219 275.773438 232.394531 274.722656 233.1875 273.652344 C 233.980469 272.578125 234.75 271.488281 235.492188 270.378906 C 236.230469 269.269531 236.945312 268.140625 237.628906 266.996094 C 238.3125 265.851562 238.96875 264.6875 239.597656 263.511719 C 240.226562 262.335938 240.824219 261.140625 241.394531 259.933594 C 241.964844 258.726562 242.503906 257.507812 243.011719 256.273438 C 243.519531 255.039062 244 253.792969 244.449219 252.535156 C 244.894531 251.277344 245.3125 250.011719 245.699219 248.730469 C 246.082031 247.453125 246.4375 246.167969 246.761719 244.871094 C 247.082031 243.574219 247.371094 242.273438 247.632812 240.960938 C 247.890625 239.652344 248.117188 238.335938 248.308594 237.015625 C 248.503906 235.691406 248.664062 234.367188 248.792969 233.035156 C 248.921875 231.707031 249.015625 230.375 249.082031 229.039062 C 249.144531 227.707031 249.175781 226.371094 249.171875 225.035156 L 248.976562 112.855469 L 245.136719 109.019531 L 245.339844 225.03125 C 245.351562 227.582031 245.238281 230.125 244.996094 232.660156 C 244.757812 235.199219 244.390625 237.71875 243.902344 240.21875 C 243.410156 242.71875 242.800781 245.191406 242.066406 247.628906 C 241.332031 250.070312 240.476562 252.464844 239.507812 254.820312 C 238.535156 257.171875 237.449219 259.472656 236.25 261.71875 C 235.050781 263.964844 233.742188 266.148438 232.328125 268.261719 C 230.910156 270.378906 229.394531 272.417969 227.777344 274.382812 C 226.15625 276.347656 224.445312 278.230469 222.640625 280.023438 Z M 215.832031 273.214844 C 212.679688 276.386719 209.246094 279.21875 205.53125 281.707031 C 201.8125 284.199219 197.886719 286.296875 193.753906 288.007812 C 189.617188 289.71875 185.351562 291.003906 180.960938 291.867188 C 176.566406 292.730469 172.128906 293.15625 167.648438 293.140625 L 167.652344 296.96875 C 168.832031 296.972656 170.011719 296.945312 171.1875 296.890625 C 172.367188 296.835938 173.542969 296.75 174.714844 296.636719 C 175.890625 296.523438 177.058594 296.378906 178.226562 296.210938 C 179.390625 296.039062 180.554688 295.839844 181.710938 295.613281 C 182.867188 295.382812 184.015625 295.128906 185.160156 294.84375 C 186.304688 294.558594 187.4375 294.246094 188.566406 293.90625 C 189.695312 293.566406 190.8125 293.199219 191.925781 292.800781 C 193.035156 292.40625 194.132812 291.984375 195.222656 291.535156 C 196.3125 291.085938 197.386719 290.609375 198.453125 290.105469 C 199.519531 289.605469 200.570312 289.078125 201.609375 288.523438 C 202.648438 287.96875 203.675781 287.390625 204.683594 286.785156 C 205.695312 286.179688 206.691406 285.550781 207.671875 284.898438 C 208.648438 284.242188 209.613281 283.566406 210.558594 282.867188 C 211.503906 282.164062 212.433594 281.441406 213.34375 280.695312 C 214.253906 279.949219 215.144531 279.179688 216.019531 278.390625 C 216.890625 277.597656 217.742188 276.785156 218.574219 275.953125 C 219.40625 275.121094 220.21875 274.269531 221.011719 273.398438 C 221.800781 272.523438 222.570312 271.632812 223.316406 270.722656 C 224.0625 269.8125 224.785156 268.882812 225.488281 267.9375 C 226.1875 266.992188 226.863281 266.027344 227.519531 265.050781 C 228.171875 264.070312 228.800781 263.074219 229.40625 262.0625 C 230.011719 261.054688 230.589844 260.027344 231.144531 258.988281 C 231.699219 257.949219 232.226562 256.898438 232.730469 255.832031 C 233.230469 254.765625 233.707031 253.691406 234.15625 252.601562 C 234.605469 251.511719 235.027344 250.414062 235.421875 249.300781 C 235.820312 248.191406 236.1875 247.074219 236.527344 245.945312 C 236.867188 244.816406 237.179688 243.683594 237.464844 242.539062 C 237.75 241.394531 238.003906 240.246094 238.234375 239.089844 C 238.460938 237.933594 238.660156 236.769531 238.832031 235.605469 C 239.003906 234.4375 239.144531 233.269531 239.257812 232.09375 C 239.371094 230.921875 239.457031 229.746094 239.511719 228.566406 C 239.566406 227.390625 239.59375 226.210938 239.589844 225.03125 L 239.378906 103.257812 L 235.527344 99.40625 L 235.761719 225.027344 C 235.777344 229.507812 235.355469 233.945312 234.492188 238.339844 C 233.628906 242.734375 232.34375 247 230.636719 251.136719 C 228.925781 255.273438 226.828125 259.203125 224.335938 262.917969 C 221.847656 266.636719 219.015625 270.070312 215.84375 273.226562 Z M 209.023438 266.40625 C 206.3125 269.132812 203.355469 271.5625 200.15625 273.699219 C 196.960938 275.839844 193.582031 277.640625 190.027344 279.105469 C 186.46875 280.570312 182.800781 281.671875 179.019531 282.410156 C 175.242188 283.148438 171.425781 283.507812 167.574219 283.488281 L 167.621094 287.363281 C 169.667969 287.367188 171.707031 287.269531 173.742188 287.070312 C 175.78125 286.875 177.800781 286.578125 179.808594 286.183594 C 181.8125 285.789062 183.792969 285.296875 185.75 284.703125 C 187.707031 284.113281 189.632812 283.429688 191.519531 282.648438 C 193.410156 281.871094 195.253906 281 197.058594 280.039062 C 198.859375 279.078125 200.613281 278.03125 202.3125 276.894531 C 204.011719 275.761719 205.648438 274.546875 207.230469 273.253906 C 208.808594 271.957031 210.320312 270.585938 211.765625 269.144531 C 213.207031 267.699219 214.578125 266.1875 215.875 264.609375 C 217.167969 263.027344 218.382812 261.390625 219.515625 259.691406 C 220.652344 257.992188 221.699219 256.238281 222.660156 254.4375 C 223.621094 252.632812 224.492188 250.789062 225.269531 248.898438 C 226.050781 247.011719 226.734375 245.085938 227.324219 243.128906 C 227.917969 241.171875 228.410156 239.191406 228.804688 237.1875 C 229.199219 235.179688 229.496094 233.160156 229.691406 231.121094 C 229.890625 229.085938 229.988281 227.046875 229.984375 225 L 229.757812 93.636719 L 225.914062 89.796875 L 226.152344 225.019531 C 226.167969 228.867188 225.804688 232.679688 225.066406 236.457031 C 224.324219 240.230469 223.21875 243.898438 221.753906 247.453125 C 220.285156 251.003906 218.480469 254.378906 216.34375 257.574219 C 214.207031 260.769531 211.773438 263.722656 209.050781 266.429688 Z M 167.601562 273.9375 L 167.609375 277.769531 C 169.339844 277.769531 171.066406 277.6875 172.785156 277.519531 C 174.507812 277.351562 176.21875 277.097656 177.914062 276.761719 C 179.609375 276.425781 181.285156 276.003906 182.941406 275.503906 C 184.59375 275.003906 186.222656 274.421875 187.820312 273.761719 C 189.414062 273.101562 190.976562 272.363281 192.5 271.550781 C 194.023438 270.734375 195.507812 269.847656 196.941406 268.890625 C 198.378906 267.929688 199.765625 266.902344 201.101562 265.808594 C 202.4375 264.710938 203.714844 263.550781 204.9375 262.332031 C 206.160156 261.109375 207.316406 259.832031 208.414062 258.496094 C 209.507812 257.160156 210.539062 255.773438 211.496094 254.335938 C 212.457031 252.898438 213.34375 251.417969 214.15625 249.894531 C 214.972656 248.371094 215.707031 246.808594 216.367188 245.210938 C 217.03125 243.613281 217.609375 241.988281 218.109375 240.332031 C 218.613281 238.679688 219.03125 237.003906 219.367188 235.308594 C 219.703125 233.609375 219.957031 231.902344 220.125 230.179688 C 220.292969 228.457031 220.378906 226.730469 220.378906 225 L 220.132812 84.054688 L 216.289062 80.214844 L 216.558594 224.980469 C 216.558594 226.585938 216.480469 228.1875 216.328125 229.785156 C 216.171875 231.382812 215.9375 232.96875 215.625 234.542969 C 215.316406 236.117188 214.925781 237.671875 214.464844 239.207031 C 214 240.746094 213.460938 242.253906 212.847656 243.734375 C 212.234375 245.21875 211.550781 246.667969 210.796875 248.082031 C 210.042969 249.496094 209.21875 250.871094 208.328125 252.203125 C 207.441406 253.539062 206.488281 254.824219 205.46875 256.0625 C 204.453125 257.304688 203.378906 258.488281 202.246094 259.625 C 201.109375 260.757812 199.925781 261.832031 198.683594 262.847656 C 197.445312 263.867188 196.160156 264.820312 194.824219 265.707031 C 193.492188 266.597656 192.117188 267.421875 190.703125 268.175781 C 189.289062 268.929688 187.839844 269.613281 186.355469 270.226562 C 184.875 270.839844 183.367188 271.378906 181.828125 271.84375 C 180.292969 272.304688 178.738281 272.695312 177.164062 273.003906 C 175.589844 273.316406 174.003906 273.550781 172.40625 273.707031 C 170.808594 273.859375 169.207031 273.9375 167.601562 273.9375 Z M 167.601562 273.9375 " clip-rule="nonzero"/></clipPath><linearGradient x1="-50.369687" gradientTransform="matrix(-0.358355, -0.358355, 0.357108, -0.357108, 184.59753, 323.493341)" y1="-13.393237" x2="370.389404" gradientUnits="userSpaceOnUse" y2="498.670327" id="18143001f2"><stop stop-opacity="1" stop-color="rgb(90.99884%, 52.89917%, 84.298706%)" offset="0"/><stop stop-opacity="1" stop-color="rgb(90.99884%, 52.89917%, 84.298706%)" offset="0.25"/><stop stop-opacity="1" stop-color="rgb(90.99884%, 52.89917%, 84.298706%)" offset="0.3125"/><stop stop-opacity="1" stop-color="rgb(90.99884%, 52.89917%, 84.298706%)" offset="0.320312"/><stop stop-opacity="1" stop-color="rgb(90.820312%, 53.16925%, 84.388733%)" offset="0.324219"/><stop stop-opacity="1" stop-color="rgb(90.643311%, 53.440857%, 84.480286%)" offset="0.328125"/><stop stop-opacity="1" stop-color="rgb(90.344238%, 53.894043%, 84.631348%)" offset="0.332031"/><stop stop-opacity="1" stop-color="rgb(90.046692%, 54.347229%, 84.78241%)" offset="0.335938"/><stop stop-opacity="1" stop-color="rgb(89.74762%, 54.798889%, 84.931946%)" offset="0.339844"/><stop stop-opacity="1" stop-color="rgb(89.450073%, 55.252075%, 85.083008%)" offset="0.34375"/><stop stop-opacity="1" stop-color="rgb(89.151001%, 55.705261%, 85.23407%)" offset="0.347656"/><stop stop-opacity="1" stop-color="rgb(88.853455%, 56.158447%, 85.385132%)" offset="0.351562"/><stop stop-opacity="1" stop-color="rgb(88.554382%, 56.611633%, 85.536194%)" offset="0.355469"/><stop stop-opacity="1" stop-color="rgb(88.256836%, 57.064819%, 85.687256%)" offset="0.359375"/><stop stop-opacity="1" stop-color="rgb(87.957764%, 57.518005%, 85.838318%)" offset="0.363281"/><stop stop-opacity="1" stop-color="rgb(87.660217%, 57.971191%, 85.98938%)" offset="0.367188"/><stop stop-opacity="1" stop-color="rgb(87.361145%, 58.424377%, 86.140442%)" offset="0.371094"/><stop stop-opacity="1" stop-color="rgb(87.063599%, 58.877563%, 86.291504%)" offset="0.375"/><stop stop-opacity="1" stop-color="rgb(86.764526%, 59.33075%, 86.442566%)" offset="0.378906"/><stop stop-opacity="1" stop-color="rgb(86.46698%, 59.783936%, 86.593628%)" offset="0.382812"/><stop stop-opacity="1" stop-color="rgb(86.167908%, 60.237122%, 86.74469%)" offset="0.386719"/><stop stop-opacity="1" stop-color="rgb(85.870361%, 60.690308%, 86.895752%)" offset="0.390625"/><stop stop-opacity="1" stop-color="rgb(85.572815%, 61.143494%, 87.046814%)" offset="0.394531"/><stop stop-opacity="1" stop-color="rgb(85.275269%, 61.59668%, 87.197876%)" offset="0.398437"/><stop stop-opacity="1" stop-color="rgb(84.976196%, 62.049866%, 87.348938%)" offset="0.402344"/><stop stop-opacity="1" stop-color="rgb(84.67865%, 62.503052%, 87.5%)" offset="0.40625"/><stop stop-opacity="1" stop-color="rgb(84.379578%, 62.956238%, 87.651062%)" offset="0.410156"/><stop stop-opacity="1" stop-color="rgb(84.082031%, 63.409424%, 87.802124%)" offset="0.414062"/><stop stop-opacity="1" stop-color="rgb(83.782959%, 63.86261%, 87.953186%)" offset="0.417969"/><stop stop-opacity="1" stop-color="rgb(83.485413%, 64.315796%, 88.104248%)" offset="0.421875"/><stop stop-opacity="1" stop-color="rgb(83.18634%, 64.768982%, 88.25531%)" offset="0.425781"/><stop stop-opacity="1" stop-color="rgb(82.888794%, 65.222168%, 88.406372%)" offset="0.429688"/><stop stop-opacity="1" stop-color="rgb(82.589722%, 65.675354%, 88.557434%)" offset="0.433594"/><stop stop-opacity="1" stop-color="rgb(82.292175%, 66.12854%, 88.708496%)" offset="0.4375"/><stop stop-opacity="1" stop-color="rgb(81.993103%, 66.581726%, 88.859558%)" offset="0.441406"/><stop stop-opacity="1" stop-color="rgb(81.695557%, 67.034912%, 89.01062%)" offset="0.445312"/><stop stop-opacity="1" stop-color="rgb(81.396484%, 67.488098%, 89.161682%)" offset="0.449219"/><stop stop-opacity="1" stop-color="rgb(81.098938%, 67.941284%, 89.312744%)" offset="0.453125"/><stop stop-opacity="1" stop-color="rgb(80.799866%, 68.39447%, 89.463806%)" offset="0.457031"/><stop stop-opacity="1" stop-color="rgb(80.502319%, 68.847656%, 89.614868%)" offset="0.460938"/><stop stop-opacity="1" stop-color="rgb(80.203247%, 69.300842%, 89.76593%)" offset="0.464844"/><stop stop-opacity="1" stop-color="rgb(79.905701%, 69.754028%, 89.916992%)" offset="0.46875"/><stop stop-opacity="1" stop-color="rgb(79.606628%, 70.207214%, 90.068054%)" offset="0.472656"/><stop stop-opacity="1" stop-color="rgb(79.309082%, 70.6604%, 90.219116%)" offset="0.476562"/><stop stop-opacity="1" stop-color="rgb(79.01001%, 71.113586%, 90.370178%)" offset="0.480469"/><stop stop-opacity="1" stop-color="rgb(78.712463%, 71.566772%, 90.52124%)" offset="0.484375"/><stop stop-opacity="1" stop-color="rgb(78.413391%, 72.019958%, 90.672302%)" offset="0.488281"/><stop stop-opacity="1" stop-color="rgb(78.115845%, 72.473145%, 90.823364%)" offset="0.492187"/><stop stop-opacity="1" stop-color="rgb(77.816772%, 72.926331%, 90.974426%)" offset="0.496094"/><stop stop-opacity="1" stop-color="rgb(77.519226%, 73.379517%, 91.125488%)" offset="0.5"/><stop stop-opacity="1" stop-color="rgb(77.22168%, 73.832703%, 91.27655%)" offset="0.503906"/><stop stop-opacity="1" stop-color="rgb(76.924133%, 74.285889%, 91.427612%)" offset="0.507812"/><stop stop-opacity="1" stop-color="rgb(76.625061%, 74.739075%, 91.578674%)" offset="0.511719"/><stop stop-opacity="1" stop-color="rgb(76.327515%, 75.192261%, 91.729736%)" offset="0.515625"/><stop stop-opacity="1" stop-color="rgb(76.028442%, 75.645447%, 91.880798%)" offset="0.519531"/><stop stop-opacity="1" stop-color="rgb(75.730896%, 76.098633%, 92.03186%)" offset="0.523438"/><stop stop-opacity="1" stop-color="rgb(75.431824%, 76.551819%, 92.182922%)" offset="0.527344"/><stop stop-opacity="1" stop-color="rgb(75.134277%, 77.005005%, 92.333984%)" offset="0.53125"/><stop stop-opacity="1" stop-color="rgb(74.835205%, 77.458191%, 92.485046%)" offset="0.535156"/><stop stop-opacity="1" stop-color="rgb(74.537659%, 77.911377%, 92.636108%)" offset="0.539062"/><stop stop-opacity="1" stop-color="rgb(74.238586%, 78.364563%, 92.78717%)" offset="0.542969"/><stop stop-opacity="1" stop-color="rgb(73.94104%, 78.817749%, 92.938232%)" offset="0.546875"/><stop stop-opacity="1" stop-color="rgb(73.641968%, 79.270935%, 93.089294%)" offset="0.550781"/><stop stop-opacity="1" stop-color="rgb(73.344421%, 79.724121%, 93.240356%)" offset="0.554688"/><stop stop-opacity="1" stop-color="rgb(73.045349%, 80.175781%, 93.391418%)" offset="0.558594"/><stop stop-opacity="1" stop-color="rgb(72.747803%, 80.628967%, 93.54248%)" offset="0.5625"/><stop stop-opacity="1" stop-color="rgb(72.44873%, 81.082153%, 93.693542%)" offset="0.566406"/><stop stop-opacity="1" stop-color="rgb(72.151184%, 81.535339%, 93.844604%)" offset="0.570312"/><stop stop-opacity="1" stop-color="rgb(71.852112%, 81.988525%, 93.995667%)" offset="0.574219"/><stop stop-opacity="1" stop-color="rgb(71.554565%, 82.441711%, 94.146729%)" offset="0.578125"/><stop stop-opacity="1" stop-color="rgb(71.255493%, 82.894897%, 94.297791%)" offset="0.582031"/><stop stop-opacity="1" stop-color="rgb(70.957947%, 83.348083%, 94.448853%)" offset="0.585937"/><stop stop-opacity="1" stop-color="rgb(70.658875%, 83.80127%, 94.599915%)" offset="0.589844"/><stop stop-opacity="1" stop-color="rgb(70.361328%, 84.254456%, 94.750977%)" offset="0.59375"/><stop stop-opacity="1" stop-color="rgb(70.062256%, 84.707642%, 94.902039%)" offset="0.597656"/><stop stop-opacity="1" stop-color="rgb(69.764709%, 85.160828%, 95.053101%)" offset="0.601562"/><stop stop-opacity="1" stop-color="rgb(69.465637%, 85.614014%, 95.204163%)" offset="0.605469"/><stop stop-opacity="1" stop-color="rgb(69.168091%, 86.0672%, 95.355225%)" offset="0.609375"/><stop stop-opacity="1" stop-color="rgb(68.869019%, 86.520386%, 95.506287%)" offset="0.613281"/><stop stop-opacity="1" stop-color="rgb(68.571472%, 86.973572%, 95.657349%)" offset="0.617188"/><stop stop-opacity="1" stop-color="rgb(68.273926%, 87.426758%, 95.808411%)" offset="0.621094"/><stop stop-opacity="1" stop-color="rgb(67.976379%, 87.879944%, 95.959473%)" offset="0.625"/><stop stop-opacity="1" stop-color="rgb(67.677307%, 88.33313%, 96.110535%)" offset="0.628906"/><stop stop-opacity="1" stop-color="rgb(67.379761%, 88.786316%, 96.261597%)" offset="0.632812"/><stop stop-opacity="1" stop-color="rgb(67.080688%, 89.239502%, 96.412659%)" offset="0.636719"/><stop stop-opacity="1" stop-color="rgb(66.783142%, 89.692688%, 96.563721%)" offset="0.640625"/><stop stop-opacity="1" stop-color="rgb(66.48407%, 90.145874%, 96.714783%)" offset="0.644531"/><stop stop-opacity="1" stop-color="rgb(66.186523%, 90.59906%, 96.865845%)" offset="0.648438"/><stop stop-opacity="1" stop-color="rgb(65.887451%, 91.052246%, 97.016907%)" offset="0.652344"/><stop stop-opacity="1" stop-color="rgb(65.589905%, 91.505432%, 97.167969%)" offset="0.65625"/><stop stop-opacity="1" stop-color="rgb(65.290833%, 91.958618%, 97.319031%)" offset="0.660156"/><stop stop-opacity="1" stop-color="rgb(64.993286%, 92.411804%, 97.470093%)" offset="0.664062"/><stop stop-opacity="1" stop-color="rgb(64.694214%, 92.86499%, 97.621155%)" offset="0.667969"/><stop stop-opacity="1" stop-color="rgb(64.396667%, 93.318176%, 97.772217%)" offset="0.671875"/><stop stop-opacity="1" stop-color="rgb(64.097595%, 93.771362%, 97.923279%)" offset="0.675781"/><stop stop-opacity="1" stop-color="rgb(63.800049%, 94.224548%, 98.074341%)" offset="0.679687"/><stop stop-opacity="1" stop-color="rgb(63.500977%, 94.677734%, 98.225403%)" offset="0.683594"/><stop stop-opacity="1" stop-color="rgb(63.20343%, 95.13092%, 98.376465%)" offset="0.6875"/><stop stop-opacity="1" stop-color="rgb(62.904358%, 95.584106%, 98.527527%)" offset="0.691406"/><stop stop-opacity="1" stop-color="rgb(62.606812%, 96.037292%, 98.678589%)" offset="0.695312"/><stop stop-opacity="1" stop-color="rgb(62.307739%, 96.490479%, 98.829651%)" offset="0.699219"/><stop stop-opacity="1" stop-color="rgb(62.010193%, 96.943665%, 98.980713%)" offset="0.703125"/><stop stop-opacity="1" stop-color="rgb(61.711121%, 97.396851%, 99.131775%)" offset="0.707031"/><stop stop-opacity="1" stop-color="rgb(61.413574%, 97.850037%, 99.282837%)" offset="0.710938"/><stop stop-opacity="1" stop-color="rgb(61.114502%, 98.303223%, 99.433899%)" offset="0.714844"/><stop stop-opacity="1" stop-color="rgb(60.816956%, 98.756409%, 99.584961%)" offset="0.71875"/><stop stop-opacity="1" stop-color="rgb(60.517883%, 99.209595%, 99.736023%)" offset="0.722656"/><stop stop-opacity="1" stop-color="rgb(60.220337%, 99.662781%, 99.887085%)" offset="0.726562"/><stop stop-opacity="1" stop-color="rgb(60.108948%, 99.830627%, 99.943542%)" offset="0.734375"/><stop stop-opacity="1" stop-color="rgb(59.999084%, 100%, 100%)" offset="0.75"/><stop stop-opacity="1" stop-color="rgb(59.999084%, 100%, 100%)" offset="1"/></linearGradient></defs><g clip-path="url(#b547c4c426)"><g clip-path="url(#a673924343)"><g clip-path="url(#9589504f71)"><g clip-path="url(#9a28305f50)"><path fill="url(#a9344da521)" d="M 85.824219 142.820312 L 86.164062 306.613281 L 189.964844 306.832031 L 189.621094 143.035156 Z M 85.824219 142.820312 " fill-rule="nonzero"/></g></g></g></g><g clip-path="url(#e635a8db0a)"><g clip-path="url(#9190698856)"><g clip-path="url(#613fee4376)"><g clip-path="url(#cf264e5c16)"><path fill="url(#3a5b409915)" d="M 245.273438 142.992188 L 245.210938 204.722656 L 332.113281 204.632812 L 332.179688 142.90625 Z M 245.273438 142.992188 " fill-rule="nonzero"/></g></g></g></g><g clip-path="url(#01ae70e7ff)"><g clip-path="url(#9b3a461280)"><g clip-path="url(#366b45bf0e)"><g clip-path="url(#c125ca6fee)"><path fill="url(#18143001f2)" d="M 208.355469 347.371094 L 376.773438 178.953125 L 208.355469 10.53125 L 39.9375 178.953125 Z M 208.355469 347.371094 " fill-rule="nonzero"/></g></g></g></g></svg>